<svg width="163" height="89" viewBox="0 0 163 89" fill="none" xmlns="http://www.w3.org/2000/svg">
<g filter="url(#filter0_f_878_7449)">
<path d="M2.55078 22.8261L22.1804 7.27058L41.81 22.4558L61.81 7.27058L81.81 23.5669L101.069 6.52984L121.81 24.3076L141.44 5.41873L160.329 23.5669L180.699 4.30762L200.699 20.2335" stroke="#74A4A3" stroke-width="5"/>
</g>
<g filter="url(#filter1_f_878_7449)">
<path d="M2.55078 42.8261L22.1804 27.2706L41.81 42.4558L61.81 27.2706L81.81 43.5669L101.069 26.5298L121.81 44.3076L141.44 25.4187L160.329 43.5669L180.699 24.3076L200.699 40.2335" stroke="#74A4A3" stroke-width="5"/>
</g>
<g filter="url(#filter2_f_878_7449)">
<path d="M2.55078 62.8261L22.1804 47.2706L41.81 62.4558L61.81 47.2706L81.81 63.5669L101.069 46.5298L121.81 64.3076L141.44 45.4187L160.329 63.5669L180.699 44.3076L200.699 60.2335" stroke="#74A4A3" stroke-width="5"/>
</g>
<g filter="url(#filter3_f_878_7449)">
<path d="M2.55078 82.8261L22.1804 67.2706L41.81 82.4558L61.81 67.2706L81.81 83.5669L101.069 66.5298L121.81 84.3076L141.44 65.4187L160.329 83.5669L180.699 64.3076L200.699 80.2335" stroke="#74A4A3" stroke-width="5"/>
</g>
<defs>
<filter id="filter0_f_878_7449" x="0" y="0" width="203.258" height="28.6836" filterUnits="userSpaceOnUse" color-interpolation-filters="sRGB">
<feFlood flood-opacity="0" result="BackgroundImageFix"/>
<feBlend mode="normal" in="SourceGraphic" in2="BackgroundImageFix" result="shape"/>
<feGaussianBlur stdDeviation="0.5" result="effect1_foregroundBlur_878_7449"/>
</filter>
<filter id="filter1_f_878_7449" x="0" y="20" width="203.258" height="28.6836" filterUnits="userSpaceOnUse" color-interpolation-filters="sRGB">
<feFlood flood-opacity="0" result="BackgroundImageFix"/>
<feBlend mode="normal" in="SourceGraphic" in2="BackgroundImageFix" result="shape"/>
<feGaussianBlur stdDeviation="0.5" result="effect1_foregroundBlur_878_7449"/>
</filter>
<filter id="filter2_f_878_7449" x="0" y="40" width="203.258" height="28.6836" filterUnits="userSpaceOnUse" color-interpolation-filters="sRGB">
<feFlood flood-opacity="0" result="BackgroundImageFix"/>
<feBlend mode="normal" in="SourceGraphic" in2="BackgroundImageFix" result="shape"/>
<feGaussianBlur stdDeviation="0.5" result="effect1_foregroundBlur_878_7449"/>
</filter>
<filter id="filter3_f_878_7449" x="0" y="60" width="203.258" height="28.6836" filterUnits="userSpaceOnUse" color-interpolation-filters="sRGB">
<feFlood flood-opacity="0" result="BackgroundImageFix"/>
<feBlend mode="normal" in="SourceGraphic" in2="BackgroundImageFix" result="shape"/>
<feGaussianBlur stdDeviation="0.5" result="effect1_foregroundBlur_878_7449"/>
</filter>
</defs>
</svg>
